<?xml version="1.0" standalone="no"?>
<!DOCTYPE svg PUBLIC "-//W3C//DTD SVG 1.1//EN" "http://www.w3.org/Graphics/SVG/1.1/DTD/svg11.dtd" >
<svg xmlns="http://www.w3.org/2000/svg" xmlns:xlink="http://www.w3.org/1999/xlink" version="1.1">
<metadata>
Created by FontForge 20200427 at Wed May 28 05:27:37 2008
 By www
Copyright (c) 2008 by ShyFoundry. All rights reserved. Freeware for personal use only. To purchase a commercial license, please visit our site at http://www.shyfoundry.com.
</metadata>
<defs>
<font id="SFDigitalReadout-MediumOblique" horiz-adv-x="751" >
  <font-face 
    font-family="SF Digital Readout"
    font-weight="550"
    font-style="oblique"
    font-stretch="normal"
    units-per-em="2048"
    panose-1="2 0 4 9 0 0 0 0 0 0"
    ascent="1638"
    descent="-410"
    x-height="1075"
    cap-height="1075"
    bbox="-10 -340 1420 1621"
    underline-thickness="20"
    underline-position="-143"
    slope="-12"
    unicode-range="U+0020-20AC"
  />
<missing-glyph horiz-adv-x="1024" 
 />
    <glyph glyph-name=".notdef" horiz-adv-x="1024" 
 />
    <glyph glyph-name="space" unicode=" " 
 />
    <glyph glyph-name="dollar" unicode="$" 
d="M346 -135l-39 51l14 69h102l-13 -69zM580 0h-409l-41 51l63 51h409l40 -51zM350 119l51 239l24 35l32 153l41 34l28 -34l-33 -153l10 -35l-51 -239h-102zM432 546h-145l-41 51l63 52h145l39 -52zM664 68l-27 34l32 154l-10 34l51 239l61 51l41 -51l-87 -410zM234 614
l-41 52l87 409l61 51l28 -34l-33 -153l10 -34l-51 -239zM696 546h-145l-41 51l63 52h146l39 -52zM580 802l-32 -153l-41 -35l-27 35l32 153l-10 34l51 239h102l-51 -239zM812 1092h-409l-41 51l63 52h410l39 -52zM582 1212l14 68l63 51l39 -51l-14 -68h-102z" />
    <glyph glyph-name="percent" unicode="%" 
d="M495 0l-41 51l63 51l39 -51zM442 68l-41 51l62 52l40 -52zM179 119l29 137l229 273l-29 -136zM579 68l-41 51l61 52l41 -52zM524 137l-41 51l63 51l39 -51zM459 956l-41 51l63 51l40 -51zM406 1024l-41 51l62 51l41 -51zM568 666l29 136l229 273l-29 -136zM543 1024
l-41 51l61 51l41 -51zM488 1092l-41 51l63 52l40 -52z" />
    <glyph glyph-name="ampersand" unicode="&#x26;" 
d="M580 0h-409l-41 51l63 51h409l40 -51zM191 256l-32 -154l-41 -34l-41 51l87 410l61 51l41 -51l-51 -239zM432 546h-145l-41 51l63 52h145l39 -52zM664 68l-27 34l32 154l-10 34l51 239l61 51l41 -51l-87 -410zM234 614l-41 52l87 409l61 51l28 -34l-33 -153l10 -34
l-51 -239zM812 1092h-409l-41 51l63 52h410l39 -52z" />
    <glyph glyph-name="quotesingle" unicode="'" 
d="M585 990l-39 51l21 102l63 52l39 -52l-20 -102z" />
    <glyph glyph-name="parenleft" unicode="(" 
d="M316 0h-145l-41 51l63 51h145l39 -51zM191 256l-32 -154l-41 -34l-41 51l87 410l61 51l41 -51l-51 -239zM234 614l-41 52l87 409l61 51l28 -34l-33 -153l10 -34l-51 -239zM548 1092h-145l-41 51l63 52h145l39 -52z" />
    <glyph glyph-name="parenright" unicode=")" 
d="M580 0h-145l-41 51l63 51h145l40 -51zM664 68l-27 34l32 154l-10 34l51 239l61 51l41 -51l-87 -410zM780 614l-41 52l51 239l24 34l33 153l40 34l41 -51l-87 -409zM812 1092h-145l-41 51l63 52h146l39 -52z" />
    <glyph glyph-name="asterisk" unicode="*" 
d="M179 119l29 137l229 273l-29 -136zM350 119l51 239l24 35l32 153l41 34l28 -34l-33 -153l10 -35l-51 -239h-102zM510 393l29 136l113 -273l-29 -137zM432 546h-145l-41 51l63 52h145l39 -52zM696 546h-145l-41 51l63 52h146l39 -52zM353 939l29 136l113 -273l-29 -136z
M580 802l-32 -153l-41 -35l-27 35l32 153l-10 34l51 239h102l-51 -239zM568 666l29 136l229 273l-29 -136z" />
    <glyph glyph-name="plus" unicode="+" 
d="M350 119l51 239l24 35l32 153l41 34l28 -34l-33 -153l10 -35l-51 -239h-102zM432 546h-145l-41 51l63 52h145l39 -52zM696 546h-145l-41 51l63 52h146l39 -52zM580 802l-32 -153l-41 -35l-27 35l32 153l-10 34l51 239h102l-51 -239z" />
    <glyph glyph-name="comma" unicode="," 
d="M353 -101l-39 52l21 100l63 51l39 -51l-21 -100z" />
    <glyph glyph-name="hyphen" unicode="-" 
d="M432 546h-145l-41 51l63 52h145l39 -52zM696 546h-145l-41 51l63 52h146l39 -52z" />
    <glyph glyph-name="period" unicode="." 
d="M375 0l-40 51l63 51l39 -51z" />
    <glyph glyph-name="slash" unicode="/" 
d="M179 119l29 137l229 273l-29 -136zM568 666l29 136l229 273l-29 -136z" />
    <glyph glyph-name="zero" unicode="0" 
d="M580 0h-409l-41 51l63 51h409l40 -51zM191 256l-32 -154l-41 -34l-41 51l87 410l61 51l41 -51l-51 -239zM664 68l-27 34l32 154l-10 34l51 239l61 51l41 -51l-87 -410zM234 614l-41 52l87 409l61 51l28 -34l-33 -153l10 -34l-51 -239zM780 614l-41 52l51 239l24 34
l33 153l40 34l41 -51l-87 -409zM812 1092h-409l-41 51l63 52h410l39 -52z" />
    <glyph glyph-name="one" unicode="1" 
d="M664 68l-27 34l32 154l-10 34l51 239l61 51l41 -51l-87 -410zM780 614l-41 52l51 239l24 34l33 153l40 34l41 -51l-87 -409z" />
    <glyph glyph-name="two" unicode="2" 
d="M580 0h-409l-41 51l63 51h409l40 -51zM191 256l-32 -154l-41 -34l-41 51l87 410l61 51l41 -51l-51 -239zM432 546h-145l-41 51l63 52h145l39 -52zM696 546h-145l-41 51l63 52h146l39 -52zM780 614l-41 52l51 239l24 34l33 153l40 34l41 -51l-87 -409zM812 1092h-409
l-41 51l63 52h410l39 -52z" />
    <glyph glyph-name="three" unicode="3" 
d="M580 0h-409l-41 51l63 51h409l40 -51zM432 546h-145l-41 51l63 52h145l39 -52zM664 68l-27 34l32 154l-10 34l51 239l61 51l41 -51l-87 -410zM696 546h-145l-41 51l63 52h146l39 -52zM780 614l-41 52l51 239l24 34l33 153l40 34l41 -51l-87 -409zM812 1092h-409l-41 51
l63 52h410l39 -52z" />
    <glyph glyph-name="four" unicode="4" 
d="M432 546h-145l-41 51l63 52h145l39 -52zM664 68l-27 34l32 154l-10 34l51 239l61 51l41 -51l-87 -410zM234 614l-41 52l87 409l61 51l28 -34l-33 -153l10 -34l-51 -239zM696 546h-145l-41 51l63 52h146l39 -52zM780 614l-41 52l51 239l24 34l33 153l40 34l41 -51
l-87 -409z" />
    <glyph glyph-name="five" unicode="5" 
d="M580 0h-409l-41 51l63 51h409l40 -51zM432 546h-145l-41 51l63 52h145l39 -52zM664 68l-27 34l32 154l-10 34l51 239l61 51l41 -51l-87 -410zM234 614l-41 52l87 409l61 51l28 -34l-33 -153l10 -34l-51 -239zM696 546h-145l-41 51l63 52h146l39 -52zM812 1092h-409
l-41 51l63 52h410l39 -52z" />
    <glyph glyph-name="six" unicode="6" 
d="M580 0h-409l-41 51l63 51h409l40 -51zM191 256l-32 -154l-41 -34l-41 51l87 410l61 51l41 -51l-51 -239zM432 546h-145l-41 51l63 52h145l39 -52zM664 68l-27 34l32 154l-10 34l51 239l61 51l41 -51l-87 -410zM234 614l-41 52l87 409l61 51l28 -34l-33 -153l10 -34
l-51 -239zM696 546h-145l-41 51l63 52h146l39 -52zM812 1092h-409l-41 51l63 52h410l39 -52z" />
    <glyph glyph-name="seven" unicode="7" 
d="M664 68l-27 34l32 154l-10 34l51 239l61 51l41 -51l-87 -410zM780 614l-41 52l51 239l24 34l33 153l40 34l41 -51l-87 -409zM812 1092h-409l-41 51l63 52h410l39 -52z" />
    <glyph glyph-name="eight" unicode="8" 
d="M580 0h-409l-41 51l63 51h409l40 -51zM191 256l-32 -154l-41 -34l-41 51l87 410l61 51l41 -51l-51 -239zM432 546h-145l-41 51l63 52h145l39 -52zM664 68l-27 34l32 154l-10 34l51 239l61 51l41 -51l-87 -410zM234 614l-41 52l87 409l61 51l28 -34l-33 -153l10 -34
l-51 -239zM696 546h-145l-41 51l63 52h146l39 -52zM780 614l-41 52l51 239l24 34l33 153l40 34l41 -51l-87 -409zM812 1092h-409l-41 51l63 52h410l39 -52z" />
    <glyph glyph-name="nine" unicode="9" 
d="M580 0h-409l-41 51l63 51h409l40 -51zM432 546h-145l-41 51l63 52h145l39 -52zM664 68l-27 34l32 154l-10 34l51 239l61 51l41 -51l-87 -410zM234 614l-41 52l87 409l61 51l28 -34l-33 -153l10 -34l-51 -239zM696 546h-145l-41 51l63 52h146l39 -52zM780 614l-41 52
l51 239l24 34l33 153l40 34l41 -51l-87 -409zM812 1092h-409l-41 51l63 52h410l39 -52z" />
    <glyph glyph-name="colon" unicode=":" 
d="M375 0l-40 51l63 51l39 -51zM478 478l-41 51l61 51l41 -51z" />
    <glyph glyph-name="semicolon" unicode=";" 
d="M353 -101l-39 52l21 100l63 51l39 -51l-21 -100zM478 478l-41 51l61 51l41 -51z" />
    <glyph glyph-name="less" unicode="&#x3c;" 
d="M374 393l29 136l112 -273l-29 -137zM432 666l29 136l228 273l-29 -136z" />
    <glyph glyph-name="equal" unicode="=" 
d="M411 452h-145l-39 51l61 52h145l41 -52zM452 640h-145l-41 51l62 51h145l41 -51zM676 452h-145l-39 51l61 52h145l41 -52zM717 640h-145l-41 51l61 51h145l41 -51z" />
    <glyph glyph-name="greater" unicode="&#x3e;" 
d="M316 119l29 137l228 273l-29 -136zM490 939l29 136l112 -273l-29 -136z" />
    <glyph glyph-name="question" unicode="?" 
d="M375 0l-40 51l15 68h102l-15 -68zM379 256l22 102l24 35l32 153l41 34l28 -34l-33 -153l10 -35l-22 -102h-102zM696 546h-145l-41 51l63 52h146l39 -52zM780 614l-41 52l51 239l24 34l33 153l40 34l41 -51l-87 -409zM812 1092h-409l-41 51l63 52h410l39 -52z" />
    <glyph glyph-name="at" unicode="@" 
d="M580 0h-409l-41 51l63 51h409l40 -51zM191 256l-32 -154l-41 -34l-41 51l87 410l61 51l41 -51l-51 -239zM234 614l-41 52l87 409l61 51l28 -34l-33 -153l10 -34l-51 -239zM696 546h-145l-41 51l63 52h146l39 -52zM580 802l-32 -153l-41 -35l-27 35l32 153l-10 34l51 239
h102l-51 -239zM780 614l-41 52l51 239l24 34l33 153l40 34l41 -51l-87 -409zM812 1092h-409l-41 51l63 52h410l39 -52z" />
    <glyph glyph-name="A" unicode="A" 
d="M191 256l-32 -154l-41 -34l-41 51l87 410l61 51l41 -51l-51 -239zM432 546h-145l-41 51l63 52h145l39 -52zM664 68l-27 34l32 154l-10 34l51 239l61 51l41 -51l-87 -410zM234 614l-41 52l87 409l61 51l28 -34l-33 -153l10 -34l-51 -239zM696 546h-145l-41 51l63 52h146
l39 -52zM780 614l-41 52l51 239l24 34l33 153l40 34l41 -51l-87 -409zM812 1092h-409l-41 51l63 52h410l39 -52z" />
    <glyph glyph-name="B" unicode="B" 
d="M580 0h-409l-41 51l63 51h409l40 -51zM350 119l51 239l24 35l32 153l41 34l28 -34l-33 -153l10 -35l-51 -239h-102zM664 68l-27 34l32 154l-10 34l51 239l61 51l41 -51l-87 -410zM696 546h-145l-41 51l63 52h146l39 -52zM580 802l-32 -153l-41 -35l-27 35l32 153l-10 34
l51 239h102l-51 -239zM780 614l-41 52l51 239l24 34l33 153l40 34l41 -51l-87 -409zM812 1092h-409l-41 51l63 52h410l39 -52z" />
    <glyph glyph-name="C" unicode="C" 
d="M580 0h-409l-41 51l63 51h409l40 -51zM191 256l-32 -154l-41 -34l-41 51l87 410l61 51l41 -51l-51 -239zM234 614l-41 52l87 409l61 51l28 -34l-33 -153l10 -34l-51 -239zM812 1092h-409l-41 51l63 52h410l39 -52z" />
    <glyph glyph-name="D" unicode="D" 
d="M580 0h-409l-41 51l63 51h409l40 -51zM350 119l51 239l24 35l32 153l41 34l28 -34l-33 -153l10 -35l-51 -239h-102zM664 68l-27 34l32 154l-10 34l51 239l61 51l41 -51l-87 -410zM580 802l-32 -153l-41 -35l-27 35l32 153l-10 34l51 239h102l-51 -239zM780 614l-41 52
l51 239l24 34l33 153l40 34l41 -51l-87 -409zM812 1092h-409l-41 51l63 52h410l39 -52z" />
    <glyph glyph-name="E" unicode="E" 
d="M580 0h-409l-41 51l63 51h409l40 -51zM191 256l-32 -154l-41 -34l-41 51l87 410l61 51l41 -51l-51 -239zM432 546h-145l-41 51l63 52h145l39 -52zM234 614l-41 52l87 409l61 51l28 -34l-33 -153l10 -34l-51 -239zM696 546h-145l-41 51l63 52h146l39 -52zM812 1092h-409
l-41 51l63 52h410l39 -52z" />
    <glyph glyph-name="F" unicode="F" 
d="M191 256l-32 -154l-41 -34l-41 51l87 410l61 51l41 -51l-51 -239zM432 546h-145l-41 51l63 52h145l39 -52zM234 614l-41 52l87 409l61 51l28 -34l-33 -153l10 -34l-51 -239zM696 546h-145l-41 51l63 52h146l39 -52zM812 1092h-409l-41 51l63 52h410l39 -52z" />
    <glyph glyph-name="G" unicode="G" 
d="M580 0h-409l-41 51l63 51h409l40 -51zM191 256l-32 -154l-41 -34l-41 51l87 410l61 51l41 -51l-51 -239zM664 68l-27 34l32 154l-10 34l51 239l61 51l41 -51l-87 -410zM234 614l-41 52l87 409l61 51l28 -34l-33 -153l10 -34l-51 -239zM696 546h-145l-41 51l63 52h146
l39 -52zM812 1092h-409l-41 51l63 52h410l39 -52z" />
    <glyph glyph-name="H" unicode="H" 
d="M191 256l-32 -154l-41 -34l-41 51l87 410l61 51l41 -51l-51 -239zM432 546h-145l-41 51l63 52h145l39 -52zM664 68l-27 34l32 154l-10 34l51 239l61 51l41 -51l-87 -410zM234 614l-41 52l87 409l61 51l28 -34l-33 -153l10 -34l-51 -239zM696 546h-145l-41 51l63 52h146
l39 -52zM780 614l-41 52l51 239l24 34l33 153l40 34l41 -51l-87 -409z" />
    <glyph glyph-name="I" unicode="I" 
d="M350 119l51 239l24 35l32 153l41 34l28 -34l-33 -153l10 -35l-51 -239h-102zM580 802l-32 -153l-41 -35l-27 35l32 153l-10 34l51 239h102l-51 -239z" />
    <glyph glyph-name="J" unicode="J" 
d="M580 0h-409l-41 51l63 51h409l40 -51zM191 256l-32 -154l-41 -34l-41 51l87 410l61 51l41 -51l-51 -239zM664 68l-27 34l32 154l-10 34l51 239l61 51l41 -51l-87 -410zM780 614l-41 52l51 239l24 34l33 153l40 34l41 -51l-87 -409z" />
    <glyph glyph-name="K" unicode="K" 
d="M191 256l-32 -154l-41 -34l-41 51l87 410l61 51l41 -51l-51 -239zM510 393l29 136l113 -273l-29 -137zM432 546h-145l-41 51l63 52h145l39 -52zM234 614l-41 52l87 409l61 51l28 -34l-33 -153l10 -34l-51 -239zM568 666l29 136l229 273l-29 -136z" />
    <glyph glyph-name="L" unicode="L" 
d="M580 0h-409l-41 51l63 51h409l40 -51zM191 256l-32 -154l-41 -34l-41 51l87 410l61 51l41 -51l-51 -239zM234 614l-41 52l87 409l61 51l28 -34l-33 -153l10 -34l-51 -239z" />
    <glyph glyph-name="M" unicode="M" 
d="M191 256l-32 -154l-41 -34l-41 51l87 410l61 51l41 -51l-51 -239zM350 119l51 239l24 35l32 153l41 34l28 -34l-33 -153l10 -35l-51 -239h-102zM664 68l-27 34l32 154l-10 34l51 239l61 51l41 -51l-87 -410zM234 614l-41 52l87 409l61 51l28 -34l-33 -153l10 -34
l-51 -239zM353 939l29 136l113 -273l-29 -136zM568 666l29 136l229 273l-29 -136zM780 614l-41 52l51 239l24 34l33 153l40 34l41 -51l-87 -409z" />
    <glyph glyph-name="N" unicode="N" 
d="M191 256l-32 -154l-41 -34l-41 51l87 410l61 51l41 -51l-51 -239zM664 68l-27 34l32 154l-10 34l51 239l61 51l41 -51l-87 -410zM234 614l-41 52l87 409l61 51l28 -34l-33 -153l10 -34l-51 -239zM780 614l-41 52l51 239l24 34l33 153l40 34l41 -51l-87 -409zM812 1092
h-409l-41 51l63 52h410l39 -52z" />
    <glyph glyph-name="O" unicode="O" 
d="M580 0h-409l-41 51l63 51h409l40 -51zM191 256l-32 -154l-41 -34l-41 51l87 410l61 51l41 -51l-51 -239zM664 68l-27 34l32 154l-10 34l51 239l61 51l41 -51l-87 -410zM234 614l-41 52l87 409l61 51l28 -34l-33 -153l10 -34l-51 -239zM780 614l-41 52l51 239l24 34
l33 153l40 34l41 -51l-87 -409zM812 1092h-409l-41 51l63 52h410l39 -52z" />
    <glyph glyph-name="P" unicode="P" 
d="M191 256l-32 -154l-41 -34l-41 51l87 410l61 51l41 -51l-51 -239zM432 546h-145l-41 51l63 52h145l39 -52zM234 614l-41 52l87 409l61 51l28 -34l-33 -153l10 -34l-51 -239zM696 546h-145l-41 51l63 52h146l39 -52zM780 614l-41 52l51 239l24 34l33 153l40 34l41 -51
l-87 -409zM812 1092h-409l-41 51l63 52h410l39 -52z" />
    <glyph glyph-name="Q" unicode="Q" 
d="M580 0h-409l-41 51l63 51h409l40 -51zM191 256l-32 -154l-41 -34l-41 51l87 410l61 51l41 -51l-51 -239zM510 393l29 136l113 -273l-29 -137zM664 68l-27 34l32 154l-10 34l51 239l61 51l41 -51l-87 -410zM234 614l-41 52l87 409l61 51l28 -34l-33 -153l10 -34l-51 -239z
M780 614l-41 52l51 239l24 34l33 153l40 34l41 -51l-87 -409zM812 1092h-409l-41 51l63 52h410l39 -52z" />
    <glyph glyph-name="R" unicode="R" 
d="M191 256l-32 -154l-41 -34l-41 51l87 410l61 51l41 -51l-51 -239zM510 393l29 136l113 -273l-29 -137zM432 546h-145l-41 51l63 52h145l39 -52zM234 614l-41 52l87 409l61 51l28 -34l-33 -153l10 -34l-51 -239zM696 546h-145l-41 51l63 52h146l39 -52zM780 614l-41 52
l51 239l24 34l33 153l40 34l41 -51l-87 -409zM812 1092h-409l-41 51l63 52h410l39 -52z" />
    <glyph glyph-name="S" unicode="S" 
d="M580 0h-409l-41 51l63 51h409l40 -51zM432 546h-145l-41 51l63 52h145l39 -52zM664 68l-27 34l32 154l-10 34l51 239l61 51l41 -51l-87 -410zM234 614l-41 52l87 409l61 51l28 -34l-33 -153l10 -34l-51 -239zM696 546h-145l-41 51l63 52h146l39 -52zM812 1092h-409
l-41 51l63 52h410l39 -52z" />
    <glyph glyph-name="T" unicode="T" 
d="M350 119l51 239l24 35l32 153l41 34l28 -34l-33 -153l10 -35l-51 -239h-102zM580 802l-32 -153l-41 -35l-27 35l32 153l-10 34l51 239h102l-51 -239zM812 1092h-409l-41 51l63 52h410l39 -52z" />
    <glyph glyph-name="U" unicode="U" 
d="M580 0h-409l-41 51l63 51h409l40 -51zM191 256l-32 -154l-41 -34l-41 51l87 410l61 51l41 -51l-51 -239zM664 68l-27 34l32 154l-10 34l51 239l61 51l41 -51l-87 -410zM234 614l-41 52l87 409l61 51l28 -34l-33 -153l10 -34l-51 -239zM780 614l-41 52l51 239l24 34
l33 153l40 34l41 -51l-87 -409z" />
    <glyph glyph-name="V" unicode="V" 
d="M510 393l29 136l113 -273l-29 -137zM664 68l-27 34l32 154l-10 34l51 239l61 51l41 -51l-87 -410zM353 939l29 136l113 -273l-29 -136zM780 614l-41 52l51 239l24 34l33 153l40 34l41 -51l-87 -409z" />
    <glyph glyph-name="W" unicode="W" 
d="M191 256l-32 -154l-41 -34l-41 51l87 410l61 51l41 -51l-51 -239zM179 119l29 137l229 273l-29 -136zM510 393l29 136l113 -273l-29 -137zM664 68l-27 34l32 154l-10 34l51 239l61 51l41 -51l-87 -410zM234 614l-41 52l87 409l61 51l28 -34l-33 -153l10 -34l-51 -239z
M580 802l-32 -153l-41 -35l-27 35l32 153l-10 34l51 239h102l-51 -239zM780 614l-41 52l51 239l24 34l33 153l40 34l41 -51l-87 -409z" />
    <glyph glyph-name="X" unicode="X" 
d="M179 119l29 137l229 273l-29 -136zM510 393l29 136l113 -273l-29 -137zM353 939l29 136l113 -273l-29 -136zM568 666l29 136l229 273l-29 -136z" />
    <glyph glyph-name="Y" unicode="Y" 
d="M350 119l51 239l24 35l32 153l41 34l28 -34l-33 -153l10 -35l-51 -239h-102zM432 546h-145l-41 51l63 52h145l39 -52zM234 614l-41 52l87 409l61 51l28 -34l-33 -153l10 -34l-51 -239zM696 546h-145l-41 51l63 52h146l39 -52zM780 614l-41 52l51 239l24 34l33 153l40 34
l41 -51l-87 -409z" />
    <glyph glyph-name="Z" unicode="Z" 
d="M580 0h-409l-41 51l63 51h409l40 -51zM179 119l29 137l229 273l-29 -136zM568 666l29 136l229 273l-29 -136zM812 1092h-409l-41 51l63 52h410l39 -52z" />
    <glyph glyph-name="bracketleft" unicode="[" 
d="M316 0h-145l-41 51l63 51h145l39 -51zM191 256l-32 -154l-41 -34l-41 51l87 410l61 51l41 -51l-51 -239zM234 614l-41 52l87 409l61 51l28 -34l-33 -153l10 -34l-51 -239zM548 1092h-145l-41 51l63 52h145l39 -52z" />
    <glyph glyph-name="backslash" unicode="\" 
d="M510 393l29 136l113 -273l-29 -137zM353 939l29 136l113 -273l-29 -136z" />
    <glyph glyph-name="bracketright" unicode="]" 
d="M580 0h-145l-41 51l63 51h145l40 -51zM664 68l-27 34l32 154l-10 34l51 239l61 51l41 -51l-87 -410zM780 614l-41 52l51 239l24 34l33 153l40 34l41 -51l-87 -409zM812 1092h-145l-41 51l63 52h146l39 -52z" />
    <glyph glyph-name="asciicircum" unicode="^" 
d="M601 1058l-215 -205l29 137l215 205l126 -205l-29 -137z" />
    <glyph glyph-name="underscore" unicode="_" 
d="M580 0h-409l-41 51l63 51h409l40 -51z" />
    <glyph glyph-name="grave" unicode="`" 
d="M606 1485l29 136l126 -204l-29 -137z" />
    <glyph glyph-name="a" unicode="a" 
d="M191 256l-32 -154l-41 -34l-41 51l87 410l61 51l41 -51l-51 -239zM432 546h-145l-41 51l63 52h145l39 -52zM664 68l-27 34l32 154l-10 34l51 239l61 51l41 -51l-87 -410zM234 614l-41 52l87 409l61 51l28 -34l-33 -153l10 -34l-51 -239zM696 546h-145l-41 51l63 52h146
l39 -52zM780 614l-41 52l51 239l24 34l33 153l40 34l41 -51l-87 -409zM812 1092h-409l-41 51l63 52h410l39 -52z" />
    <glyph glyph-name="b" unicode="b" 
d="M580 0h-409l-41 51l63 51h409l40 -51zM350 119l51 239l24 35l32 153l41 34l28 -34l-33 -153l10 -35l-51 -239h-102zM664 68l-27 34l32 154l-10 34l51 239l61 51l41 -51l-87 -410zM696 546h-145l-41 51l63 52h146l39 -52zM580 802l-32 -153l-41 -35l-27 35l32 153l-10 34
l51 239h102l-51 -239zM780 614l-41 52l51 239l24 34l33 153l40 34l41 -51l-87 -409zM812 1092h-409l-41 51l63 52h410l39 -52z" />
    <glyph glyph-name="c" unicode="c" 
d="M580 0h-409l-41 51l63 51h409l40 -51zM191 256l-32 -154l-41 -34l-41 51l87 410l61 51l41 -51l-51 -239zM234 614l-41 52l87 409l61 51l28 -34l-33 -153l10 -34l-51 -239zM812 1092h-409l-41 51l63 52h410l39 -52z" />
    <glyph glyph-name="d" unicode="d" 
d="M580 0h-409l-41 51l63 51h409l40 -51zM350 119l51 239l24 35l32 153l41 34l28 -34l-33 -153l10 -35l-51 -239h-102zM664 68l-27 34l32 154l-10 34l51 239l61 51l41 -51l-87 -410zM580 802l-32 -153l-41 -35l-27 35l32 153l-10 34l51 239h102l-51 -239zM780 614l-41 52
l51 239l24 34l33 153l40 34l41 -51l-87 -409zM812 1092h-409l-41 51l63 52h410l39 -52z" />
    <glyph glyph-name="e" unicode="e" 
d="M580 0h-409l-41 51l63 51h409l40 -51zM191 256l-32 -154l-41 -34l-41 51l87 410l61 51l41 -51l-51 -239zM432 546h-145l-41 51l63 52h145l39 -52zM234 614l-41 52l87 409l61 51l28 -34l-33 -153l10 -34l-51 -239zM696 546h-145l-41 51l63 52h146l39 -52zM812 1092h-409
l-41 51l63 52h410l39 -52z" />
    <glyph glyph-name="f" unicode="f" 
d="M191 256l-32 -154l-41 -34l-41 51l87 410l61 51l41 -51l-51 -239zM432 546h-145l-41 51l63 52h145l39 -52zM234 614l-41 52l87 409l61 51l28 -34l-33 -153l10 -34l-51 -239zM696 546h-145l-41 51l63 52h146l39 -52zM812 1092h-409l-41 51l63 52h410l39 -52z" />
    <glyph glyph-name="g" unicode="g" 
d="M580 0h-409l-41 51l63 51h409l40 -51zM191 256l-32 -154l-41 -34l-41 51l87 410l61 51l41 -51l-51 -239zM664 68l-27 34l32 154l-10 34l51 239l61 51l41 -51l-87 -410zM234 614l-41 52l87 409l61 51l28 -34l-33 -153l10 -34l-51 -239zM696 546h-145l-41 51l63 52h146
l39 -52zM812 1092h-409l-41 51l63 52h410l39 -52z" />
    <glyph glyph-name="h" unicode="h" 
d="M191 256l-32 -154l-41 -34l-41 51l87 410l61 51l41 -51l-51 -239zM432 546h-145l-41 51l63 52h145l39 -52zM664 68l-27 34l32 154l-10 34l51 239l61 51l41 -51l-87 -410zM234 614l-41 52l87 409l61 51l28 -34l-33 -153l10 -34l-51 -239zM696 546h-145l-41 51l63 52h146
l39 -52zM780 614l-41 52l51 239l24 34l33 153l40 34l41 -51l-87 -409z" />
    <glyph glyph-name="i" unicode="i" 
d="M350 119l51 239l24 35l32 153l41 34l28 -34l-33 -153l10 -35l-51 -239h-102zM580 802l-32 -153l-41 -35l-27 35l32 153l-10 34l51 239h102l-51 -239z" />
    <glyph glyph-name="j" unicode="j" 
d="M580 0h-409l-41 51l63 51h409l40 -51zM191 256l-32 -154l-41 -34l-41 51l87 410l61 51l41 -51l-51 -239zM664 68l-27 34l32 154l-10 34l51 239l61 51l41 -51l-87 -410zM780 614l-41 52l51 239l24 34l33 153l40 34l41 -51l-87 -409z" />
    <glyph glyph-name="k" unicode="k" 
d="M191 256l-32 -154l-41 -34l-41 51l87 410l61 51l41 -51l-51 -239zM510 393l29 136l113 -273l-29 -137zM432 546h-145l-41 51l63 52h145l39 -52zM234 614l-41 52l87 409l61 51l28 -34l-33 -153l10 -34l-51 -239zM568 666l29 136l229 273l-29 -136z" />
    <glyph glyph-name="l" unicode="l" 
d="M580 0h-409l-41 51l63 51h409l40 -51zM191 256l-32 -154l-41 -34l-41 51l87 410l61 51l41 -51l-51 -239zM234 614l-41 52l87 409l61 51l28 -34l-33 -153l10 -34l-51 -239z" />
    <glyph glyph-name="m" unicode="m" 
d="M191 256l-32 -154l-41 -34l-41 51l87 410l61 51l41 -51l-51 -239zM350 119l51 239l24 35l32 153l41 34l28 -34l-33 -153l10 -35l-51 -239h-102zM664 68l-27 34l32 154l-10 34l51 239l61 51l41 -51l-87 -410zM234 614l-41 52l87 409l61 51l28 -34l-33 -153l10 -34
l-51 -239zM353 939l29 136l113 -273l-29 -136zM568 666l29 136l229 273l-29 -136zM780 614l-41 52l51 239l24 34l33 153l40 34l41 -51l-87 -409z" />
    <glyph glyph-name="n" unicode="n" 
d="M191 256l-32 -154l-41 -34l-41 51l87 410l61 51l41 -51l-51 -239zM664 68l-27 34l32 154l-10 34l51 239l61 51l41 -51l-87 -410zM234 614l-41 52l87 409l61 51l28 -34l-33 -153l10 -34l-51 -239zM780 614l-41 52l51 239l24 34l33 153l40 34l41 -51l-87 -409zM812 1092
h-409l-41 51l63 52h410l39 -52z" />
    <glyph glyph-name="o" unicode="o" 
d="M580 0h-409l-41 51l63 51h409l40 -51zM191 256l-32 -154l-41 -34l-41 51l87 410l61 51l41 -51l-51 -239zM664 68l-27 34l32 154l-10 34l51 239l61 51l41 -51l-87 -410zM234 614l-41 52l87 409l61 51l28 -34l-33 -153l10 -34l-51 -239zM780 614l-41 52l51 239l24 34
l33 153l40 34l41 -51l-87 -409zM812 1092h-409l-41 51l63 52h410l39 -52z" />
    <glyph glyph-name="p" unicode="p" 
d="M191 256l-32 -154l-41 -34l-41 51l87 410l61 51l41 -51l-51 -239zM432 546h-145l-41 51l63 52h145l39 -52zM234 614l-41 52l87 409l61 51l28 -34l-33 -153l10 -34l-51 -239zM696 546h-145l-41 51l63 52h146l39 -52zM780 614l-41 52l51 239l24 34l33 153l40 34l41 -51
l-87 -409zM812 1092h-409l-41 51l63 52h410l39 -52z" />
    <glyph glyph-name="q" unicode="q" 
d="M580 0h-409l-41 51l63 51h409l40 -51zM191 256l-32 -154l-41 -34l-41 51l87 410l61 51l41 -51l-51 -239zM510 393l29 136l113 -273l-29 -137zM664 68l-27 34l32 154l-10 34l51 239l61 51l41 -51l-87 -410zM234 614l-41 52l87 409l61 51l28 -34l-33 -153l10 -34l-51 -239z
M780 614l-41 52l51 239l24 34l33 153l40 34l41 -51l-87 -409zM812 1092h-409l-41 51l63 52h410l39 -52z" />
    <glyph glyph-name="r" unicode="r" 
d="M191 256l-32 -154l-41 -34l-41 51l87 410l61 51l41 -51l-51 -239zM510 393l29 136l113 -273l-29 -137zM432 546h-145l-41 51l63 52h145l39 -52zM234 614l-41 52l87 409l61 51l28 -34l-33 -153l10 -34l-51 -239zM696 546h-145l-41 51l63 52h146l39 -52zM780 614l-41 52
l51 239l24 34l33 153l40 34l41 -51l-87 -409zM812 1092h-409l-41 51l63 52h410l39 -52z" />
    <glyph glyph-name="s" unicode="s" 
d="M580 0h-409l-41 51l63 51h409l40 -51zM432 546h-145l-41 51l63 52h145l39 -52zM664 68l-27 34l32 154l-10 34l51 239l61 51l41 -51l-87 -410zM234 614l-41 52l87 409l61 51l28 -34l-33 -153l10 -34l-51 -239zM696 546h-145l-41 51l63 52h146l39 -52zM812 1092h-409
l-41 51l63 52h410l39 -52z" />
    <glyph glyph-name="t" unicode="t" 
d="M350 119l51 239l24 35l32 153l41 34l28 -34l-33 -153l10 -35l-51 -239h-102zM580 802l-32 -153l-41 -35l-27 35l32 153l-10 34l51 239h102l-51 -239zM812 1092h-409l-41 51l63 52h410l39 -52z" />
    <glyph glyph-name="u" unicode="u" 
d="M580 0h-409l-41 51l63 51h409l40 -51zM191 256l-32 -154l-41 -34l-41 51l87 410l61 51l41 -51l-51 -239zM664 68l-27 34l32 154l-10 34l51 239l61 51l41 -51l-87 -410zM234 614l-41 52l87 409l61 51l28 -34l-33 -153l10 -34l-51 -239zM780 614l-41 52l51 239l24 34
l33 153l40 34l41 -51l-87 -409z" />
    <glyph glyph-name="v" unicode="v" 
d="M510 393l29 136l113 -273l-29 -137zM664 68l-27 34l32 154l-10 34l51 239l61 51l41 -51l-87 -410zM353 939l29 136l113 -273l-29 -136zM780 614l-41 52l51 239l24 34l33 153l40 34l41 -51l-87 -409z" />
    <glyph glyph-name="w" unicode="w" 
d="M191 256l-32 -154l-41 -34l-41 51l87 410l61 51l41 -51l-51 -239zM179 119l29 137l229 273l-29 -136zM510 393l29 136l113 -273l-29 -137zM664 68l-27 34l32 154l-10 34l51 239l61 51l41 -51l-87 -410zM234 614l-41 52l87 409l61 51l28 -34l-33 -153l10 -34l-51 -239z
M580 802l-32 -153l-41 -35l-27 35l32 153l-10 34l51 239h102l-51 -239zM780 614l-41 52l51 239l24 34l33 153l40 34l41 -51l-87 -409z" />
    <glyph glyph-name="x" unicode="x" 
d="M179 119l29 137l229 273l-29 -136zM510 393l29 136l113 -273l-29 -137zM353 939l29 136l113 -273l-29 -136zM568 666l29 136l229 273l-29 -136z" />
    <glyph glyph-name="y" unicode="y" 
d="M350 119l51 239l24 35l32 153l41 34l28 -34l-33 -153l10 -35l-51 -239h-102zM432 546h-145l-41 51l63 52h145l39 -52zM234 614l-41 52l87 409l61 51l28 -34l-33 -153l10 -34l-51 -239zM696 546h-145l-41 51l63 52h146l39 -52zM780 614l-41 52l51 239l24 34l33 153l40 34
l41 -51l-87 -409z" />
    <glyph glyph-name="z" unicode="z" 
d="M580 0h-409l-41 51l63 51h409l40 -51zM179 119l29 137l229 273l-29 -136zM568 666l29 136l229 273l-29 -136zM812 1092h-409l-41 51l63 52h410l39 -52z" />
    <glyph glyph-name="braceleft" unicode="{" 
d="M316 0h-145l-41 51l63 51h145l39 -51zM191 256l-32 -154l-41 -34l-41 51l87 410l61 51l41 -51l-51 -239zM234 614l-41 52l87 409l61 51l28 -34l-33 -153l10 -34l-51 -239zM548 1092h-145l-41 51l63 52h145l39 -52z" />
    <glyph glyph-name="bar" unicode="|" horiz-adv-x="205" 
d="M77 119l51 239l24 35l32 153l41 34l28 -34l-33 -153l10 -35l-51 -239h-102zM307 802l-32 -153l-41 -35l-27 35l32 153l-10 34l51 239h102l-51 -239z" />
    <glyph glyph-name="braceright" unicode="}" 
d="M580 0h-145l-41 51l63 51h145l40 -51zM664 68l-27 34l32 154l-10 34l51 239l61 51l41 -51l-87 -410zM780 614l-41 52l51 239l24 34l33 153l40 34l41 -51l-87 -409zM812 1092h-145l-41 51l63 52h146l39 -52z" />
    <glyph glyph-name="asciitilde" unicode="~" 
d="M492 1024l-41 51l61 51l41 -51zM628 1024l-41 51l62 51l40 -51zM573 1092l-41 51l64 52l39 -52zM710 1092l-41 51l63 52l39 -52z" />
    <glyph glyph-name="Adieresis" unicode="&#xc4;" 
d="M191 256l-32 -154l-41 -34l-41 51l87 410l61 51l41 -51l-51 -239zM432 546h-145l-41 51l63 52h145l39 -52zM664 68l-27 34l32 154l-10 34l51 239l61 51l41 -51l-87 -410zM234 614l-41 52l87 409l61 51l28 -34l-33 -153l10 -34l-51 -239zM696 546h-145l-41 51l63 52h146
l39 -52zM780 614l-41 52l51 239l24 34l33 153l40 34l41 -51l-87 -409zM812 1092h-409l-41 51l63 52h410l39 -52zM527 1280l-39 51l62 51l41 -51zM766 1280l-39 51l61 51l41 -51z" />
    <glyph glyph-name="Aring" unicode="&#xc5;" 
d="M652 1297l-41 51l61 51l41 -51zM597 1365l-41 52l64 51l39 -51zM734 1365l-41 52l63 51l39 -51zM681 1434l-41 51l61 51l41 -51zM191 256l-32 -154l-41 -34l-41 51l87 410l61 51l41 -51l-51 -239zM432 546h-145l-41 51l63 52h145l39 -52zM664 68l-27 34l32 154l-10 34
l51 239l61 51l41 -51l-87 -410zM234 614l-41 52l87 409l61 51l28 -34l-33 -153l10 -34l-51 -239zM696 546h-145l-41 51l63 52h146l39 -52zM780 614l-41 52l51 239l24 34l33 153l40 34l41 -51l-87 -409zM812 1092h-409l-41 51l63 52h410l39 -52z" />
    <glyph glyph-name="Eacute" unicode="&#xc9;" 
d="M580 0h-409l-41 51l63 51h409l40 -51zM191 256l-32 -154l-41 -34l-41 51l87 410l61 51l41 -51l-51 -239zM432 546h-145l-41 51l63 52h145l39 -52zM234 614l-41 52l87 409l61 51l28 -34l-33 -153l10 -34l-51 -239zM696 546h-145l-41 51l63 52h146l39 -52zM812 1092h-409
l-41 51l63 52h410l39 -52zM561 1280l30 137l215 204l-29 -136z" />
    <glyph glyph-name="Ntilde" unicode="&#xd1;" 
d="M191 256l-32 -154l-41 -34l-41 51l87 410l61 51l41 -51l-51 -239zM664 68l-27 34l32 154l-10 34l51 239l61 51l41 -51l-87 -410zM234 614l-41 52l87 409l61 51l28 -34l-33 -153l10 -34l-51 -239zM780 614l-41 52l51 239l24 34l33 153l40 34l41 -51l-87 -409zM812 1092
h-409l-41 51l63 52h410l39 -52zM544 1280l-39 51l62 51l41 -51zM681 1280l-39 51l61 51l41 -51zM628 1348l-41 51l63 52l39 -52zM765 1348l-41 51l63 52l39 -52z" />
    <glyph glyph-name="Odieresis" unicode="&#xd6;" 
d="M580 0h-409l-41 51l63 51h409l40 -51zM191 256l-32 -154l-41 -34l-41 51l87 410l61 51l41 -51l-51 -239zM664 68l-27 34l32 154l-10 34l51 239l61 51l41 -51l-87 -410zM234 614l-41 52l87 409l61 51l28 -34l-33 -153l10 -34l-51 -239zM780 614l-41 52l51 239l24 34
l33 153l40 34l41 -51l-87 -409zM812 1092h-409l-41 51l63 52h410l39 -52zM527 1280l-39 51l62 51l41 -51zM766 1280l-39 51l61 51l41 -51z" />
    <glyph glyph-name="Udieresis" unicode="&#xdc;" 
d="M527 1280l-39 51l62 51l41 -51zM766 1280l-39 51l61 51l41 -51zM580 0h-409l-41 51l63 51h409l40 -51zM191 256l-32 -154l-41 -34l-41 51l87 410l61 51l41 -51l-51 -239zM664 68l-27 34l32 154l-10 34l51 239l61 51l41 -51l-87 -410zM234 614l-41 52l87 409l61 51l28 -34
l-33 -153l10 -34l-51 -239zM780 614l-41 52l51 239l24 34l33 153l40 34l41 -51l-87 -409z" />
    <glyph glyph-name="aacute" unicode="&#xe1;" 
d="M191 256l-32 -154l-41 -34l-41 51l87 410l61 51l41 -51l-51 -239zM432 546h-145l-41 51l63 52h145l39 -52zM664 68l-27 34l32 154l-10 34l51 239l61 51l41 -51l-87 -410zM234 614l-41 52l87 409l61 51l28 -34l-33 -153l10 -34l-51 -239zM696 546h-145l-41 51l63 52h146
l39 -52zM780 614l-41 52l51 239l24 34l33 153l40 34l41 -51l-87 -409zM812 1092h-409l-41 51l63 52h410l39 -52zM561 1280l30 137l215 204l-29 -136z" />
    <glyph glyph-name="agrave" unicode="&#xe0;" 
d="M606 1485l29 136l126 -204l-29 -137zM191 256l-32 -154l-41 -34l-41 51l87 410l61 51l41 -51l-51 -239zM432 546h-145l-41 51l63 52h145l39 -52zM664 68l-27 34l32 154l-10 34l51 239l61 51l41 -51l-87 -410zM234 614l-41 52l87 409l61 51l28 -34l-33 -153l10 -34
l-51 -239zM696 546h-145l-41 51l63 52h146l39 -52zM780 614l-41 52l51 239l24 34l33 153l40 34l41 -51l-87 -409zM812 1092h-409l-41 51l63 52h410l39 -52z" />
    <glyph glyph-name="acircumflex" unicode="&#xe2;" 
d="M691 1485l-215 -205l29 137l215 204l127 -204l-30 -137zM191 256l-32 -154l-41 -34l-41 51l87 410l61 51l41 -51l-51 -239zM432 546h-145l-41 51l63 52h145l39 -52zM664 68l-27 34l32 154l-10 34l51 239l61 51l41 -51l-87 -410zM234 614l-41 52l87 409l61 51l28 -34
l-33 -153l10 -34l-51 -239zM696 546h-145l-41 51l63 52h146l39 -52zM780 614l-41 52l51 239l24 34l33 153l40 34l41 -51l-87 -409zM812 1092h-409l-41 51l63 52h410l39 -52z" />
    <glyph glyph-name="adieresis" unicode="&#xe4;" 
d="M527 1280l-39 51l62 51l41 -51zM766 1280l-39 51l61 51l41 -51zM191 256l-32 -154l-41 -34l-41 51l87 410l61 51l41 -51l-51 -239zM432 546h-145l-41 51l63 52h145l39 -52zM664 68l-27 34l32 154l-10 34l51 239l61 51l41 -51l-87 -410zM234 614l-41 52l87 409l61 51
l28 -34l-33 -153l10 -34l-51 -239zM696 546h-145l-41 51l63 52h146l39 -52zM780 614l-41 52l51 239l24 34l33 153l40 34l41 -51l-87 -409zM812 1092h-409l-41 51l63 52h410l39 -52z" />
    <glyph glyph-name="atilde" unicode="&#xe3;" 
d="M191 256l-32 -154l-41 -34l-41 51l87 410l61 51l41 -51l-51 -239zM432 546h-145l-41 51l63 52h145l39 -52zM664 68l-27 34l32 154l-10 34l51 239l61 51l41 -51l-87 -410zM234 614l-41 52l87 409l61 51l28 -34l-33 -153l10 -34l-51 -239zM696 546h-145l-41 51l63 52h146
l39 -52zM780 614l-41 52l51 239l24 34l33 153l40 34l41 -51l-87 -409zM812 1092h-409l-41 51l63 52h410l39 -52zM544 1280l-39 51l62 51l41 -51zM681 1280l-39 51l61 51l41 -51zM628 1348l-41 51l63 52l39 -52zM765 1348l-41 51l63 52l39 -52z" />
    <glyph glyph-name="aring" unicode="&#xe5;" 
d="M652 1297l-41 51l61 51l41 -51zM597 1365l-41 52l64 51l39 -51zM734 1365l-41 52l63 51l39 -51zM681 1434l-41 51l61 51l41 -51zM191 256l-32 -154l-41 -34l-41 51l87 410l61 51l41 -51l-51 -239zM432 546h-145l-41 51l63 52h145l39 -52zM664 68l-27 34l32 154l-10 34
l51 239l61 51l41 -51l-87 -410zM234 614l-41 52l87 409l61 51l28 -34l-33 -153l10 -34l-51 -239zM696 546h-145l-41 51l63 52h146l39 -52zM780 614l-41 52l51 239l24 34l33 153l40 34l41 -51l-87 -409zM812 1092h-409l-41 51l63 52h410l39 -52z" />
    <glyph glyph-name="eacute" unicode="&#xe9;" 
d="M580 0h-409l-41 51l63 51h409l40 -51zM191 256l-32 -154l-41 -34l-41 51l87 410l61 51l41 -51l-51 -239zM432 546h-145l-41 51l63 52h145l39 -52zM234 614l-41 52l87 409l61 51l28 -34l-33 -153l10 -34l-51 -239zM696 546h-145l-41 51l63 52h146l39 -52zM812 1092h-409
l-41 51l63 52h410l39 -52zM561 1280l30 137l215 204l-29 -136z" />
    <glyph glyph-name="egrave" unicode="&#xe8;" 
d="M606 1485l29 136l126 -204l-29 -137zM580 0h-409l-41 51l63 51h409l40 -51zM191 256l-32 -154l-41 -34l-41 51l87 410l61 51l41 -51l-51 -239zM432 546h-145l-41 51l63 52h145l39 -52zM234 614l-41 52l87 409l61 51l28 -34l-33 -153l10 -34l-51 -239zM696 546h-145
l-41 51l63 52h146l39 -52zM812 1092h-409l-41 51l63 52h410l39 -52z" />
    <glyph glyph-name="ecircumflex" unicode="&#xea;" 
d="M691 1485l-215 -205l29 137l215 204l127 -204l-30 -137zM580 0h-409l-41 51l63 51h409l40 -51zM191 256l-32 -154l-41 -34l-41 51l87 410l61 51l41 -51l-51 -239zM432 546h-145l-41 51l63 52h145l39 -52zM234 614l-41 52l87 409l61 51l28 -34l-33 -153l10 -34l-51 -239z
M696 546h-145l-41 51l63 52h146l39 -52zM812 1092h-409l-41 51l63 52h410l39 -52z" />
    <glyph glyph-name="edieresis" unicode="&#xeb;" 
d="M527 1280l-39 51l62 51l41 -51zM766 1280l-39 51l61 51l41 -51zM580 0h-409l-41 51l63 51h409l40 -51zM191 256l-32 -154l-41 -34l-41 51l87 410l61 51l41 -51l-51 -239zM432 546h-145l-41 51l63 52h145l39 -52zM234 614l-41 52l87 409l61 51l28 -34l-33 -153l10 -34
l-51 -239zM696 546h-145l-41 51l63 52h146l39 -52zM812 1092h-409l-41 51l63 52h410l39 -52z" />
    <glyph glyph-name="iacute" unicode="&#xed;" 
d="M561 1280l30 137l215 204l-29 -136zM350 119l51 239l24 35l32 153l41 34l28 -34l-33 -153l10 -35l-51 -239h-102zM580 802l-32 -153l-41 -35l-27 35l32 153l-10 34l51 239h102l-51 -239z" />
    <glyph glyph-name="igrave" unicode="&#xec;" 
d="M606 1485l29 136l126 -204l-29 -137zM350 119l51 239l24 35l32 153l41 34l28 -34l-33 -153l10 -35l-51 -239h-102zM580 802l-32 -153l-41 -35l-27 35l32 153l-10 34l51 239h102l-51 -239z" />
    <glyph glyph-name="icircumflex" unicode="&#xee;" 
d="M691 1485l-215 -205l29 137l215 204l127 -204l-30 -137zM350 119l51 239l24 35l32 153l41 34l28 -34l-33 -153l10 -35l-51 -239h-102zM580 802l-32 -153l-41 -35l-27 35l32 153l-10 34l51 239h102l-51 -239z" />
    <glyph glyph-name="idieresis" unicode="&#xef;" 
d="M527 1280l-39 51l62 51l41 -51zM766 1280l-39 51l61 51l41 -51zM350 119l51 239l24 35l32 153l41 34l28 -34l-33 -153l10 -35l-51 -239h-102zM580 802l-32 -153l-41 -35l-27 35l32 153l-10 34l51 239h102l-51 -239z" />
    <glyph glyph-name="ntilde" unicode="&#xf1;" 
d="M191 256l-32 -154l-41 -34l-41 51l87 410l61 51l41 -51l-51 -239zM664 68l-27 34l32 154l-10 34l51 239l61 51l41 -51l-87 -410zM234 614l-41 52l87 409l61 51l28 -34l-33 -153l10 -34l-51 -239zM780 614l-41 52l51 239l24 34l33 153l40 34l41 -51l-87 -409zM812 1092
h-409l-41 51l63 52h410l39 -52zM544 1280l-39 51l62 51l41 -51zM681 1280l-39 51l61 51l41 -51zM628 1348l-41 51l63 52l39 -52zM765 1348l-41 51l63 52l39 -52z" />
    <glyph glyph-name="oacute" unicode="&#xf3;" 
d="M580 0h-409l-41 51l63 51h409l40 -51zM191 256l-32 -154l-41 -34l-41 51l87 410l61 51l41 -51l-51 -239zM664 68l-27 34l32 154l-10 34l51 239l61 51l41 -51l-87 -410zM234 614l-41 52l87 409l61 51l28 -34l-33 -153l10 -34l-51 -239zM780 614l-41 52l51 239l24 34
l33 153l40 34l41 -51l-87 -409zM812 1092h-409l-41 51l63 52h410l39 -52zM561 1280l30 137l215 204l-29 -136z" />
    <glyph glyph-name="ograve" unicode="&#xf2;" 
d="M606 1485l29 136l126 -204l-29 -137zM580 0h-409l-41 51l63 51h409l40 -51zM191 256l-32 -154l-41 -34l-41 51l87 410l61 51l41 -51l-51 -239zM664 68l-27 34l32 154l-10 34l51 239l61 51l41 -51l-87 -410zM234 614l-41 52l87 409l61 51l28 -34l-33 -153l10 -34l-51 -239
zM780 614l-41 52l51 239l24 34l33 153l40 34l41 -51l-87 -409zM812 1092h-409l-41 51l63 52h410l39 -52z" />
    <glyph glyph-name="ocircumflex" unicode="&#xf4;" 
d="M691 1485l-215 -205l29 137l215 204l127 -204l-30 -137zM580 0h-409l-41 51l63 51h409l40 -51zM191 256l-32 -154l-41 -34l-41 51l87 410l61 51l41 -51l-51 -239zM664 68l-27 34l32 154l-10 34l51 239l61 51l41 -51l-87 -410zM234 614l-41 52l87 409l61 51l28 -34
l-33 -153l10 -34l-51 -239zM780 614l-41 52l51 239l24 34l33 153l40 34l41 -51l-87 -409zM812 1092h-409l-41 51l63 52h410l39 -52z" />
    <glyph glyph-name="odieresis" unicode="&#xf6;" 
d="M527 1280l-39 51l62 51l41 -51zM766 1280l-39 51l61 51l41 -51zM580 0h-409l-41 51l63 51h409l40 -51zM191 256l-32 -154l-41 -34l-41 51l87 410l61 51l41 -51l-51 -239zM664 68l-27 34l32 154l-10 34l51 239l61 51l41 -51l-87 -410zM234 614l-41 52l87 409l61 51l28 -34
l-33 -153l10 -34l-51 -239zM780 614l-41 52l51 239l24 34l33 153l40 34l41 -51l-87 -409zM812 1092h-409l-41 51l63 52h410l39 -52z" />
    <glyph glyph-name="otilde" unicode="&#xf5;" 
d="M580 0h-409l-41 51l63 51h409l40 -51zM191 256l-32 -154l-41 -34l-41 51l87 410l61 51l41 -51l-51 -239zM664 68l-27 34l32 154l-10 34l51 239l61 51l41 -51l-87 -410zM234 614l-41 52l87 409l61 51l28 -34l-33 -153l10 -34l-51 -239zM780 614l-41 52l51 239l24 34
l33 153l40 34l41 -51l-87 -409zM812 1092h-409l-41 51l63 52h410l39 -52zM544 1280l-39 51l62 51l41 -51zM681 1280l-39 51l61 51l41 -51zM628 1348l-41 51l63 52l39 -52zM765 1348l-41 51l63 52l39 -52z" />
    <glyph glyph-name="uacute" unicode="&#xfa;" 
d="M580 0h-409l-41 51l63 51h409l40 -51zM191 256l-32 -154l-41 -34l-41 51l87 410l61 51l41 -51l-51 -239zM664 68l-27 34l32 154l-10 34l51 239l61 51l41 -51l-87 -410zM234 614l-41 52l87 409l61 51l28 -34l-33 -153l10 -34l-51 -239zM780 614l-41 52l51 239l24 34
l33 153l40 34l41 -51l-87 -409zM561 1280l30 137l215 204l-29 -136z" />
    <glyph glyph-name="ugrave" unicode="&#xf9;" 
d="M606 1485l29 136l126 -204l-29 -137zM580 0h-409l-41 51l63 51h409l40 -51zM191 256l-32 -154l-41 -34l-41 51l87 410l61 51l41 -51l-51 -239zM664 68l-27 34l32 154l-10 34l51 239l61 51l41 -51l-87 -410zM234 614l-41 52l87 409l61 51l28 -34l-33 -153l10 -34l-51 -239
zM780 614l-41 52l51 239l24 34l33 153l40 34l41 -51l-87 -409z" />
    <glyph glyph-name="ucircumflex" unicode="&#xfb;" 
d="M691 1485l-215 -205l29 137l215 204l127 -204l-30 -137zM580 0h-409l-41 51l63 51h409l40 -51zM191 256l-32 -154l-41 -34l-41 51l87 410l61 51l41 -51l-51 -239zM664 68l-27 34l32 154l-10 34l51 239l61 51l41 -51l-87 -410zM234 614l-41 52l87 409l61 51l28 -34
l-33 -153l10 -34l-51 -239zM780 614l-41 52l51 239l24 34l33 153l40 34l41 -51l-87 -409z" />
    <glyph glyph-name="udieresis" unicode="&#xfc;" 
d="M527 1280l-39 51l62 51l41 -51zM766 1280l-39 51l61 51l41 -51zM580 0h-409l-41 51l63 51h409l40 -51zM191 256l-32 -154l-41 -34l-41 51l87 410l61 51l41 -51l-51 -239zM664 68l-27 34l32 154l-10 34l51 239l61 51l41 -51l-87 -410zM234 614l-41 52l87 409l61 51l28 -34
l-33 -153l10 -34l-51 -239zM780 614l-41 52l51 239l24 34l33 153l40 34l41 -51l-87 -409z" />
    <glyph glyph-name="degree" unicode="&#xb0;" 
d="M579 956l-41 51l63 51l39 -51zM526 1024l-41 51l61 51l41 -51zM662 1024l-41 51l62 51l41 -51zM608 1092l-41 51l63 52l39 -52z" />
    <glyph glyph-name="cent" unicode="&#xa2;" 
d="M432 546h-145l-41 51l63 52h145l39 -52zM463 410l-41 51l15 68l61 51l41 -51l-15 -68zM234 614l-41 52l87 409l61 51l28 -34l-33 -153l10 -34l-51 -239zM696 546h-145l-41 51l63 52h146l39 -52zM580 802l-32 -153l-41 -35l-27 35l32 153l-10 34l51 239h102l-51 -239z
M812 1092h-409l-41 51l63 52h410l39 -52zM582 1212l14 68l63 51l39 -51l-14 -68h-102z" />
    <glyph glyph-name="sterling" unicode="&#xa3;" 
d="M580 0h-409l-41 51l63 51h409l40 -51zM191 256l-32 -154l-41 -34l-41 51l87 410l61 51l41 -51l-51 -239zM432 546h-145l-41 51l63 52h145l39 -52zM234 614l-41 52l87 409l61 51l28 -34l-33 -153l10 -34l-51 -239zM812 1092h-409l-41 51l63 52h410l39 -52zM816 785l-41 51
l15 69l24 34l33 153l40 34l41 -51l-51 -239z" />
    <glyph glyph-name="germandbls" unicode="&#xdf;" 
d="M31 -340l-41 52l58 273l61 49l41 -49l-58 -273zM191 256l-32 -154l-41 -34l-41 51l87 410l61 51l41 -51l-51 -239zM580 0h-145l-41 51l63 51h145l40 -51zM664 68l-27 34l32 154l-10 34l51 239l61 51l41 -51l-87 -410zM234 614l-41 52l87 409l61 51l28 -34l-33 -153
l10 -34l-51 -239zM696 546h-145l-41 51l63 52h146l39 -52zM780 614l-41 52l51 239l24 34l33 153l40 34l41 -51l-87 -409zM812 1092h-409l-41 51l63 52h410l39 -52z" />
    <glyph glyph-name="registered" unicode="&#xae;" 
d="M191 256l-32 -154l-41 -34l-41 51l87 410l61 51l41 -51l-51 -239zM510 393l29 136l113 -273l-29 -137zM432 546h-145l-41 51l63 52h145l39 -52zM234 614l-41 52l87 409l61 51l28 -34l-33 -153l10 -34l-51 -239zM696 546h-145l-41 51l63 52h146l39 -52zM780 614l-41 52
l51 239l24 34l33 153l40 34l41 -51l-87 -409zM812 1092h-409l-41 51l63 52h410l39 -52z" />
    <glyph glyph-name="copyright" unicode="&#xa9;" 
d="M580 0h-409l-41 51l63 51h409l40 -51zM191 256l-32 -154l-41 -34l-41 51l87 410l61 51l41 -51l-51 -239zM234 614l-41 52l87 409l61 51l28 -34l-33 -153l10 -34l-51 -239zM812 1092h-409l-41 51l63 52h410l39 -52z" />
    <glyph glyph-name="acute" unicode="&#xb4;" 
d="M561 1280l30 137l215 204l-29 -136z" />
    <glyph glyph-name="dieresis" unicode="&#xa8;" 
d="M527 1280l-39 51l62 51l41 -51zM766 1280l-39 51l61 51l41 -51z" />
    <glyph glyph-name="AE" unicode="&#xc6;" horiz-adv-x="1229" 
d="M191 256l-32 -154l-41 -34l-41 51l87 410l61 51l41 -51l-51 -239zM432 546h-145l-41 51l63 52h145l39 -52zM1126 0h-409l-41 51l63 51h410l39 -51zM664 68l-27 34l32 154l-10 34l51 239l61 51l41 -51l-87 -410zM234 614l-41 52l87 409l61 51l28 -34l-33 -153l10 -34
l-51 -239zM696 546h-145l-41 51l63 52h146l39 -52zM978 546h-145l-41 51l63 52h145l39 -52zM780 614l-41 52l51 239l24 34l33 153l40 34l41 -51l-87 -409zM812 1092h-409l-41 51l63 52h410l39 -52zM1242 546h-145l-41 51l64 52h145l39 -52zM1359 1092h-410l-41 51l63 52h410
l39 -52z" />
    <glyph glyph-name="Oslash" unicode="&#xd8;" 
d="M580 0h-409l-41 51l63 51h409l40 -51zM191 256l-32 -154l-41 -34l-41 51l87 410l61 51l41 -51l-51 -239zM179 119l29 137l229 273l-29 -136zM664 68l-27 34l32 154l-10 34l51 239l61 51l41 -51l-87 -410zM234 614l-41 52l87 409l61 51l28 -34l-33 -153l10 -34l-51 -239z
M568 666l29 136l229 273l-29 -136zM780 614l-41 52l51 239l24 34l33 153l40 34l41 -51l-87 -409zM812 1092h-409l-41 51l63 52h410l39 -52z" />
    <glyph glyph-name="plusminus" unicode="&#xb1;" 
d="M580 0h-409l-41 51l63 51h409l40 -51zM350 119l51 239l24 35l32 153l41 34l28 -34l-33 -153l10 -35l-51 -239h-102zM432 546h-145l-41 51l63 52h145l39 -52zM696 546h-145l-41 51l63 52h146l39 -52zM580 802l-32 -153l-41 -35l-27 35l32 153l-10 34l51 239h102l-51 -239z
" />
    <glyph glyph-name="yen" unicode="&#xa5;" 
d="M350 119l51 239l24 35l32 153l41 34l28 -34l-33 -153l10 -35l-51 -239h-102zM432 546h-145l-41 51l63 52h145l39 -52zM234 614l-41 52l87 409l61 51l28 -34l-33 -153l10 -34l-51 -239zM696 546h-145l-41 51l63 52h146l39 -52zM780 614l-41 52l51 239l24 34l33 153l40 34
l41 -51l-87 -409z" />
    <glyph glyph-name="ae" unicode="&#xe6;" horiz-adv-x="1229" 
d="M191 256l-32 -154l-41 -34l-41 51l87 410l61 51l41 -51l-51 -239zM432 546h-145l-41 51l63 52h145l39 -52zM1126 0h-409l-41 51l63 51h410l39 -51zM664 68l-27 34l32 154l-10 34l51 239l61 51l41 -51l-87 -410zM234 614l-41 52l87 409l61 51l28 -34l-33 -153l10 -34
l-51 -239zM696 546h-145l-41 51l63 52h146l39 -52zM978 546h-145l-41 51l63 52h145l39 -52zM780 614l-41 52l51 239l24 34l33 153l40 34l41 -51l-87 -409zM812 1092h-409l-41 51l63 52h410l39 -52zM1242 546h-145l-41 51l64 52h145l39 -52zM1359 1092h-410l-41 51l63 52h410
l39 -52z" />
    <glyph glyph-name="oslash" unicode="&#xf8;" 
d="M580 0h-409l-41 51l63 51h409l40 -51zM191 256l-32 -154l-41 -34l-41 51l87 410l61 51l41 -51l-51 -239zM179 119l29 137l229 273l-29 -136zM664 68l-27 34l32 154l-10 34l51 239l61 51l41 -51l-87 -410zM234 614l-41 52l87 409l61 51l28 -34l-33 -153l10 -34l-51 -239z
M568 666l29 136l229 273l-29 -136zM780 614l-41 52l51 239l24 34l33 153l40 34l41 -51l-87 -409zM812 1092h-409l-41 51l63 52h410l39 -52z" />
    <glyph glyph-name="questiondown" unicode="&#xbf;" 
d="M649 0h-410l-41 51l63 51h410l39 -51zM259 256l-32 -154l-41 -34l-41 51l87 410l62 51l41 -51l-52 -239zM500 546h-145l-41 51l63 52h145l39 -52zM649 802l-33 -153l-41 -35l-27 35l32 153l-10 34l22 103h103l-23 -103zM621 1075l14 68l63 52l39 -52l-13 -68h-103z" />
    <glyph glyph-name="exclamdown" unicode="&#xa1;" 
d="M350 119l51 239l24 35l32 153l41 34l28 -34l-33 -153l10 -35l-51 -239h-102zM580 802l-32 -153l-41 -35l-27 35l32 153l-10 34l22 103h102l-22 -103zM553 1075l14 68l63 52l39 -52l-14 -68h-102z" />
    <glyph glyph-name="guillemotleft" unicode="&#xab;" 
d="M203 393l29 136l113 -273l-29 -137zM544 393l29 136l113 -273l-29 -137zM261 666l29 136l229 273l-29 -136zM602 666l29 136l229 273l-29 -136z" />
    <glyph glyph-name="guillemotright" unicode="&#xbb;" 
d="M145 119l29 137l229 273l-29 -136zM486 119l29 137l229 273l-29 -136zM319 939l29 136l113 -273l-29 -136zM660 939l29 136l113 -273l-29 -136z" />
    <glyph glyph-name="ellipsis" unicode="&#x85;" 
d="M205 0l-41 51l63 51l39 -51zM375 0l-40 51l63 51l39 -51zM546 0l-41 51l63 51l40 -51z" />
    <glyph glyph-name="ellipsis" unicode="&#x2026;" 
d="M205 0l-41 51l63 51l39 -51zM375 0l-40 51l63 51l39 -51zM546 0l-41 51l63 51l40 -51z" />
    <glyph glyph-name="Agrave" unicode="&#xc0;" 
d="M191 256l-32 -154l-41 -34l-41 51l87 410l61 51l41 -51l-51 -239zM432 546h-145l-41 51l63 52h145l39 -52zM664 68l-27 34l32 154l-10 34l51 239l61 51l41 -51l-87 -410zM234 614l-41 52l87 409l61 51l28 -34l-33 -153l10 -34l-51 -239zM696 546h-145l-41 51l63 52h146
l39 -52zM780 614l-41 52l51 239l24 34l33 153l40 34l41 -51l-87 -409zM812 1092h-409l-41 51l63 52h410l39 -52zM606 1485l29 136l126 -204l-29 -137z" />
    <glyph glyph-name="Atilde" unicode="&#xc3;" 
d="M544 1280l-39 51l62 51l41 -51zM681 1280l-39 51l61 51l41 -51zM628 1348l-41 51l63 52l39 -52zM765 1348l-41 51l63 52l39 -52zM191 256l-32 -154l-41 -34l-41 51l87 410l61 51l41 -51l-51 -239zM432 546h-145l-41 51l63 52h145l39 -52zM664 68l-27 34l32 154l-10 34
l51 239l61 51l41 -51l-87 -410zM234 614l-41 52l87 409l61 51l28 -34l-33 -153l10 -34l-51 -239zM696 546h-145l-41 51l63 52h146l39 -52zM780 614l-41 52l51 239l24 34l33 153l40 34l41 -51l-87 -409zM812 1092h-409l-41 51l63 52h410l39 -52z" />
    <glyph glyph-name="Otilde" unicode="&#xd5;" 
d="M580 0h-409l-41 51l63 51h409l40 -51zM191 256l-32 -154l-41 -34l-41 51l87 410l61 51l41 -51l-51 -239zM664 68l-27 34l32 154l-10 34l51 239l61 51l41 -51l-87 -410zM234 614l-41 52l87 409l61 51l28 -34l-33 -153l10 -34l-51 -239zM780 614l-41 52l51 239l24 34
l33 153l40 34l41 -51l-87 -409zM812 1092h-409l-41 51l63 52h410l39 -52zM544 1280l-39 51l62 51l41 -51zM681 1280l-39 51l61 51l41 -51zM628 1348l-41 51l63 52l39 -52zM765 1348l-41 51l63 52l39 -52z" />
    <glyph glyph-name="OE" horiz-adv-x="1229" 
d="M580 0h-409l-41 51l63 51h409l40 -51zM191 256l-32 -154l-41 -34l-41 51l87 410l61 51l41 -51l-51 -239zM1126 0h-409l-41 51l63 51h410l39 -51zM664 68l-27 34l32 154l-10 34l51 239l61 51l41 -51l-87 -410zM234 614l-41 52l87 409l61 51l28 -34l-33 -153l10 -34
l-51 -239zM978 546h-145l-41 51l63 52h145l39 -52zM780 614l-41 52l51 239l24 34l33 153l40 34l41 -51l-87 -409zM812 1092h-409l-41 51l63 52h410l39 -52zM1242 546h-145l-41 51l64 52h145l39 -52zM1359 1092h-410l-41 51l63 52h410l39 -52z" />
    <glyph glyph-name="OE" unicode="&#x152;" horiz-adv-x="1229" 
d="M580 0h-409l-41 51l63 51h409l40 -51zM191 256l-32 -154l-41 -34l-41 51l87 410l61 51l41 -51l-51 -239zM1126 0h-409l-41 51l63 51h410l39 -51zM664 68l-27 34l32 154l-10 34l51 239l61 51l41 -51l-87 -410zM234 614l-41 52l87 409l61 51l28 -34l-33 -153l10 -34
l-51 -239zM978 546h-145l-41 51l63 52h145l39 -52zM780 614l-41 52l51 239l24 34l33 153l40 34l41 -51l-87 -409zM812 1092h-409l-41 51l63 52h410l39 -52zM1242 546h-145l-41 51l64 52h145l39 -52zM1359 1092h-410l-41 51l63 52h410l39 -52z" />
    <glyph glyph-name="oe" horiz-adv-x="1229" 
d="M580 0h-409l-41 51l63 51h409l40 -51zM191 256l-32 -154l-41 -34l-41 51l87 410l61 51l41 -51l-51 -239zM1126 0h-409l-41 51l63 51h410l39 -51zM664 68l-27 34l32 154l-10 34l51 239l61 51l41 -51l-87 -410zM234 614l-41 52l87 409l61 51l28 -34l-33 -153l10 -34
l-51 -239zM978 546h-145l-41 51l63 52h145l39 -52zM780 614l-41 52l51 239l24 34l33 153l40 34l41 -51l-87 -409zM812 1092h-409l-41 51l63 52h410l39 -52zM1242 546h-145l-41 51l64 52h145l39 -52zM1359 1092h-410l-41 51l63 52h410l39 -52z" />
    <glyph glyph-name="oe" unicode="&#x153;" horiz-adv-x="1229" 
d="M580 0h-409l-41 51l63 51h409l40 -51zM191 256l-32 -154l-41 -34l-41 51l87 410l61 51l41 -51l-51 -239zM1126 0h-409l-41 51l63 51h410l39 -51zM664 68l-27 34l32 154l-10 34l51 239l61 51l41 -51l-87 -410zM234 614l-41 52l87 409l61 51l28 -34l-33 -153l10 -34
l-51 -239zM978 546h-145l-41 51l63 52h145l39 -52zM780 614l-41 52l51 239l24 34l33 153l40 34l41 -51l-87 -409zM812 1092h-409l-41 51l63 52h410l39 -52zM1242 546h-145l-41 51l64 52h145l39 -52zM1359 1092h-410l-41 51l63 52h410l39 -52z" />
    <glyph glyph-name="endash" 
d="M432 546h-145l-41 51l63 52h145l39 -52z" />
    <glyph glyph-name="endash" unicode="&#x2013;" 
d="M432 546h-145l-41 51l63 52h145l39 -52z" />
    <glyph glyph-name="emdash" 
d="M432 546h-145l-41 51l63 52h145l39 -52zM696 546h-145l-41 51l63 52h146l39 -52z" />
    <glyph glyph-name="emdash" unicode="&#x2014;" 
d="M432 546h-145l-41 51l63 52h145l39 -52zM696 546h-145l-41 51l63 52h146l39 -52z" />
    <glyph glyph-name="quotedblleft" 
d="M526 990l-40 51l21 102l63 52l39 -52l-20 -102zM645 990l-39 51l20 102l63 52l40 -52l-21 -102z" />
    <glyph glyph-name="quotedblleft" unicode="&#x201c;" 
d="M526 990l-40 51l21 102l63 52l39 -52l-20 -102zM645 990l-39 51l20 102l63 52l40 -52l-21 -102z" />
    <glyph glyph-name="quotedblright" 
d="M526 990l-40 51l21 102l63 52l39 -52l-20 -102zM645 990l-39 51l20 102l63 52l40 -52l-21 -102z" />
    <glyph glyph-name="quotedblright" unicode="&#x201d;" 
d="M526 990l-40 51l21 102l63 52l39 -52l-20 -102zM645 990l-39 51l20 102l63 52l40 -52l-21 -102z" />
    <glyph glyph-name="quoteleft" 
d="M585 990l-39 51l21 102l63 52l39 -52l-20 -102z" />
    <glyph glyph-name="quoteleft" unicode="&#x2018;" 
d="M585 990l-39 51l21 102l63 52l39 -52l-20 -102z" />
    <glyph glyph-name="quoteright" 
d="M585 990l-39 51l21 102l63 52l39 -52l-20 -102z" />
    <glyph glyph-name="quoteright" unicode="&#x2019;" 
d="M585 990l-39 51l21 102l63 52l39 -52l-20 -102z" />
    <glyph glyph-name="divide" unicode="&#xf7;" 
d="M404 375l14 69l63 51l40 -51l-14 -69h-103zM432 546h-145l-41 51l63 52h145l39 -52zM696 546h-145l-41 51l63 52h146l39 -52zM524 700l-39 51l13 68h103l-14 -68z" />
    <glyph glyph-name="ydieresis" unicode="&#xff;" 
d="M350 119l51 239l24 35l32 153l41 34l28 -34l-33 -153l10 -35l-51 -239h-102zM432 546h-145l-41 51l63 52h145l39 -52zM234 614l-41 52l87 409l61 51l28 -34l-33 -153l10 -34l-51 -239zM696 546h-145l-41 51l63 52h146l39 -52zM780 614l-41 52l51 239l24 34l33 153l40 34
l41 -51l-87 -409zM527 1280l-39 51l62 51l41 -51zM766 1280l-39 51l61 51l41 -51z" />
    <glyph glyph-name="Ydieresis" 
d="M527 1280l-39 51l62 51l41 -51zM766 1280l-39 51l61 51l41 -51zM350 119l51 239l24 35l32 153l41 34l28 -34l-33 -153l10 -35l-51 -239h-102zM432 546h-145l-41 51l63 52h145l39 -52zM234 614l-41 52l87 409l61 51l28 -34l-33 -153l10 -34l-51 -239zM696 546h-145l-41 51
l63 52h146l39 -52zM780 614l-41 52l51 239l24 34l33 153l40 34l41 -51l-87 -409z" />
    <glyph glyph-name="Ydieresis" unicode="&#x178;" 
d="M527 1280l-39 51l62 51l41 -51zM766 1280l-39 51l61 51l41 -51zM350 119l51 239l24 35l32 153l41 34l28 -34l-33 -153l10 -35l-51 -239h-102zM432 546h-145l-41 51l63 52h145l39 -52zM234 614l-41 52l87 409l61 51l28 -34l-33 -153l10 -34l-51 -239zM696 546h-145l-41 51
l63 52h146l39 -52zM780 614l-41 52l51 239l24 34l33 153l40 34l41 -51l-87 -409z" />
    <glyph glyph-name="guilsinglleft" 
d="M374 393l29 136l112 -273l-29 -137zM432 666l29 136l228 273l-29 -136z" />
    <glyph glyph-name="guilsinglleft" unicode="&#x2039;" 
d="M374 393l29 136l112 -273l-29 -137zM432 666l29 136l228 273l-29 -136z" />
    <glyph glyph-name="guilsinglright" 
d="M316 119l29 137l228 273l-29 -136zM490 939l29 136l112 -273l-29 -136z" />
    <glyph glyph-name="guilsinglright" unicode="&#x203a;" 
d="M316 119l29 137l228 273l-29 -136zM490 939l29 136l112 -273l-29 -136z" />
    <glyph glyph-name="quotesinglbase" 
d="M353 -101l-39 52l21 100l63 51l39 -51l-21 -100z" />
    <glyph glyph-name="quotesinglbase" unicode="&#x201a;" 
d="M353 -101l-39 52l21 100l63 51l39 -51l-21 -100z" />
    <glyph glyph-name="quotedblbase" 
d="M294 -101l-40 52l21 100l63 51l39 -51l-20 -100zM413 -101l-39 52l20 100l63 51l40 -51l-21 -100z" />
    <glyph glyph-name="quotedblbase" unicode="&#x201e;" 
d="M294 -101l-40 52l21 100l63 51l39 -51l-20 -100zM413 -101l-39 52l20 100l63 51l40 -51l-21 -100z" />
    <glyph glyph-name="perthousand" 
d="M324 0l-41 51l63 51l40 -51zM271 68l-41 51l62 52l41 -52zM408 68l-41 51l61 52l41 -52zM353 137l-41 51l63 51l40 -51zM179 119l29 137l229 273l-29 -136zM597 0l-41 51l64 51l39 -51zM544 68l-41 51l62 52l41 -52zM681 68l-41 51l61 52l41 -52zM626 137l-41 51l64 51
l39 -51zM459 956l-41 51l63 51l40 -51zM406 1024l-41 51l62 51l41 -51zM568 666l29 136l229 273l-29 -136zM543 1024l-41 51l61 51l41 -51zM488 1092l-41 51l63 52l40 -52z" />
    <glyph glyph-name="perthousand" unicode="&#x2030;" 
d="M324 0l-41 51l63 51l40 -51zM271 68l-41 51l62 52l41 -52zM408 68l-41 51l61 52l41 -52zM353 137l-41 51l63 51l40 -51zM179 119l29 137l229 273l-29 -136zM597 0l-41 51l64 51l39 -51zM544 68l-41 51l62 52l41 -52zM681 68l-41 51l61 52l41 -52zM626 137l-41 51l64 51
l39 -51zM459 956l-41 51l63 51l40 -51zM406 1024l-41 51l62 51l41 -51zM568 666l29 136l229 273l-29 -136zM543 1024l-41 51l61 51l41 -51zM488 1092l-41 51l63 52l40 -52z" />
    <glyph glyph-name="Acircumflex" unicode="&#xc2;" 
d="M191 256l-32 -154l-41 -34l-41 51l87 410l61 51l41 -51l-51 -239zM432 546h-145l-41 51l63 52h145l39 -52zM664 68l-27 34l32 154l-10 34l51 239l61 51l41 -51l-87 -410zM234 614l-41 52l87 409l61 51l28 -34l-33 -153l10 -34l-51 -239zM696 546h-145l-41 51l63 52h146
l39 -52zM780 614l-41 52l51 239l24 34l33 153l40 34l41 -51l-87 -409zM812 1092h-409l-41 51l63 52h410l39 -52zM691 1485l-215 -205l29 137l215 204l127 -204l-30 -137z" />
    <glyph glyph-name="Ecircumflex" unicode="&#xca;" 
d="M691 1485l-215 -205l29 137l215 204l127 -204l-30 -137zM580 0h-409l-41 51l63 51h409l40 -51zM191 256l-32 -154l-41 -34l-41 51l87 410l61 51l41 -51l-51 -239zM432 546h-145l-41 51l63 52h145l39 -52zM234 614l-41 52l87 409l61 51l28 -34l-33 -153l10 -34l-51 -239z
M696 546h-145l-41 51l63 52h146l39 -52zM812 1092h-409l-41 51l63 52h410l39 -52z" />
    <glyph glyph-name="Aacute" unicode="&#xc1;" 
d="M561 1280l30 137l215 204l-29 -136zM191 256l-32 -154l-41 -34l-41 51l87 410l61 51l41 -51l-51 -239zM432 546h-145l-41 51l63 52h145l39 -52zM664 68l-27 34l32 154l-10 34l51 239l61 51l41 -51l-87 -410zM234 614l-41 52l87 409l61 51l28 -34l-33 -153l10 -34
l-51 -239zM696 546h-145l-41 51l63 52h146l39 -52zM780 614l-41 52l51 239l24 34l33 153l40 34l41 -51l-87 -409zM812 1092h-409l-41 51l63 52h410l39 -52z" />
    <glyph glyph-name="Edieresis" unicode="&#xcb;" 
d="M580 0h-409l-41 51l63 51h409l40 -51zM191 256l-32 -154l-41 -34l-41 51l87 410l61 51l41 -51l-51 -239zM432 546h-145l-41 51l63 52h145l39 -52zM234 614l-41 52l87 409l61 51l28 -34l-33 -153l10 -34l-51 -239zM696 546h-145l-41 51l63 52h146l39 -52zM812 1092h-409
l-41 51l63 52h410l39 -52zM527 1280l-39 51l62 51l41 -51zM766 1280l-39 51l61 51l41 -51z" />
    <glyph glyph-name="Egrave" unicode="&#xc8;" 
d="M606 1485l29 136l126 -204l-29 -137zM580 0h-409l-41 51l63 51h409l40 -51zM191 256l-32 -154l-41 -34l-41 51l87 410l61 51l41 -51l-51 -239zM432 546h-145l-41 51l63 52h145l39 -52zM234 614l-41 52l87 409l61 51l28 -34l-33 -153l10 -34l-51 -239zM696 546h-145
l-41 51l63 52h146l39 -52zM812 1092h-409l-41 51l63 52h410l39 -52z" />
    <glyph glyph-name="Iacute" unicode="&#xcd;" 
d="M350 119l51 239l24 35l32 153l41 34l28 -34l-33 -153l10 -35l-51 -239h-102zM580 802l-32 -153l-41 -35l-27 35l32 153l-10 34l51 239h102l-51 -239zM561 1280l30 137l215 204l-29 -136z" />
    <glyph glyph-name="Icircumflex" unicode="&#xce;" 
d="M691 1485l-215 -205l29 137l215 204l127 -204l-30 -137zM350 119l51 239l24 35l32 153l41 34l28 -34l-33 -153l10 -35l-51 -239h-102zM580 802l-32 -153l-41 -35l-27 35l32 153l-10 34l51 239h102l-51 -239z" />
    <glyph glyph-name="Idieresis" unicode="&#xcf;" 
d="M527 1280l-39 51l62 51l41 -51zM766 1280l-39 51l61 51l41 -51zM350 119l51 239l24 35l32 153l41 34l28 -34l-33 -153l10 -35l-51 -239h-102zM580 802l-32 -153l-41 -35l-27 35l32 153l-10 34l51 239h102l-51 -239z" />
    <glyph glyph-name="Igrave" unicode="&#xcc;" 
d="M606 1485l29 136l126 -204l-29 -137zM350 119l51 239l24 35l32 153l41 34l28 -34l-33 -153l10 -35l-51 -239h-102zM580 802l-32 -153l-41 -35l-27 35l32 153l-10 34l51 239h102l-51 -239z" />
    <glyph glyph-name="Oacute" unicode="&#xd3;" 
d="M561 1280l30 137l215 204l-29 -136zM580 0h-409l-41 51l63 51h409l40 -51zM191 256l-32 -154l-41 -34l-41 51l87 410l61 51l41 -51l-51 -239zM664 68l-27 34l32 154l-10 34l51 239l61 51l41 -51l-87 -410zM234 614l-41 52l87 409l61 51l28 -34l-33 -153l10 -34l-51 -239z
M780 614l-41 52l51 239l24 34l33 153l40 34l41 -51l-87 -409zM812 1092h-409l-41 51l63 52h410l39 -52z" />
    <glyph glyph-name="Ocircumflex" unicode="&#xd4;" 
d="M691 1485l-215 -205l29 137l215 204l127 -204l-30 -137zM580 0h-409l-41 51l63 51h409l40 -51zM191 256l-32 -154l-41 -34l-41 51l87 410l61 51l41 -51l-51 -239zM664 68l-27 34l32 154l-10 34l51 239l61 51l41 -51l-87 -410zM234 614l-41 52l87 409l61 51l28 -34
l-33 -153l10 -34l-51 -239zM780 614l-41 52l51 239l24 34l33 153l40 34l41 -51l-87 -409zM812 1092h-409l-41 51l63 52h410l39 -52z" />
    <glyph glyph-name="Ograve" unicode="&#xd2;" 
d="M606 1485l29 136l126 -204l-29 -137zM580 0h-409l-41 51l63 51h409l40 -51zM191 256l-32 -154l-41 -34l-41 51l87 410l61 51l41 -51l-51 -239zM664 68l-27 34l32 154l-10 34l51 239l61 51l41 -51l-87 -410zM234 614l-41 52l87 409l61 51l28 -34l-33 -153l10 -34l-51 -239
zM780 614l-41 52l51 239l24 34l33 153l40 34l41 -51l-87 -409zM812 1092h-409l-41 51l63 52h410l39 -52z" />
    <glyph glyph-name="Uacute" unicode="&#xda;" 
d="M580 0h-409l-41 51l63 51h409l40 -51zM191 256l-32 -154l-41 -34l-41 51l87 410l61 51l41 -51l-51 -239zM664 68l-27 34l32 154l-10 34l51 239l61 51l41 -51l-87 -410zM234 614l-41 52l87 409l61 51l28 -34l-33 -153l10 -34l-51 -239zM780 614l-41 52l51 239l24 34
l33 153l40 34l41 -51l-87 -409zM561 1280l30 137l215 204l-29 -136z" />
    <glyph glyph-name="Ucircumflex" unicode="&#xdb;" 
d="M691 1485l-215 -205l29 137l215 204l127 -204l-30 -137zM580 0h-409l-41 51l63 51h409l40 -51zM191 256l-32 -154l-41 -34l-41 51l87 410l61 51l41 -51l-51 -239zM664 68l-27 34l32 154l-10 34l51 239l61 51l41 -51l-87 -410zM234 614l-41 52l87 409l61 51l28 -34
l-33 -153l10 -34l-51 -239zM780 614l-41 52l51 239l24 34l33 153l40 34l41 -51l-87 -409z" />
    <glyph glyph-name="Ugrave" unicode="&#xd9;" 
d="M606 1485l29 136l126 -204l-29 -137zM580 0h-409l-41 51l63 51h409l40 -51zM191 256l-32 -154l-41 -34l-41 51l87 410l61 51l41 -51l-51 -239zM664 68l-27 34l32 154l-10 34l51 239l61 51l41 -51l-87 -410zM234 614l-41 52l87 409l61 51l28 -34l-33 -153l10 -34l-51 -239
zM780 614l-41 52l51 239l24 34l33 153l40 34l41 -51l-87 -409z" />
    <glyph glyph-name="circumflex" 
d="M691 1485l-215 -205l29 137l215 204l127 -204l-30 -137z" />
    <glyph glyph-name="circumflex" unicode="&#x2c6;" 
d="M691 1485l-215 -205l29 137l215 204l127 -204l-30 -137z" />
    <glyph glyph-name="tilde" 
d="M544 1280l-39 51l62 51l41 -51zM681 1280l-39 51l61 51l41 -51zM628 1348l-41 51l63 52l39 -52zM765 1348l-41 51l63 52l39 -52z" />
    <glyph glyph-name="tilde" unicode="&#x2dc;" 
d="M544 1280l-39 51l62 51l41 -51zM681 1280l-39 51l61 51l41 -51zM628 1348l-41 51l63 52l39 -52zM765 1348l-41 51l63 52l39 -52z" />
    <glyph glyph-name="ring" unicode="&#x2da;" 
d="M652 1297l-41 51l61 51l41 -51zM597 1365l-41 52l64 51l39 -51zM734 1365l-41 52l63 51l39 -51zM681 1434l-41 51l61 51l41 -51z" />
    <glyph glyph-name="caron" unicode="&#x2c7;" 
d="M647 1280l-126 205l29 136l126 -204l215 204l-29 -136z" />
    <glyph glyph-name="nonbreakingspace" unicode="&#xa0;" 
 />
    <glyph glyph-name="numbersign" unicode="#" 
d="M365 512l-41 51l22 103l62 51l41 -51l-22 -103zM333 683h-103l-41 51l64 51h102l39 -51zM604 512l-41 51l22 103l62 51l41 -51l-22 -103zM572 683h-103l-41 51l64 51h102l39 -51zM416 751l-41 51l23 103l61 51l41 -51l-22 -103zM384 922h-102l-41 51l63 51h102l39 -51z
M811 683h-103l-41 51l63 51h103l39 -51zM655 751l-41 51l23 103l61 51l41 -51l-22 -103zM623 922h-102l-41 51l63 51h102l39 -51zM466 990l-39 51l20 102l63 52l40 -52l-21 -102zM862 922h-103l-40 51l63 51h102l39 -51zM705 990l-39 51l20 102l63 52l39 -52l-20 -102z" />
    <glyph glyph-name="exclam" unicode="!" 
d="M375 0l-40 51l15 68h102l-15 -68zM379 256l22 102l24 35l32 153l41 34l28 -34l-33 -153l10 -35l-22 -102h-102zM580 802l-32 -153l-41 -35l-27 35l32 153l-10 34l51 239h102l-51 -239z" />
    <glyph glyph-name="quotedbl" unicode="&#x22;" 
d="M526 990l-40 51l21 102l63 52l39 -52l-20 -102zM645 990l-39 51l20 102l63 52l40 -52l-21 -102z" />
    <glyph glyph-name=".null" horiz-adv-x="0" 
 />
    <glyph glyph-name="nonmarkingreturn" 
 />
    <glyph glyph-name="Scaron" 
d="M580 0h-409l-41 51l63 51h409l40 -51zM432 546h-145l-41 51l63 52h145l39 -52zM664 68l-27 34l32 154l-10 34l51 239l61 51l41 -51l-87 -410zM234 614l-41 52l87 409l61 51l28 -34l-33 -153l10 -34l-51 -239zM696 546h-145l-41 51l63 52h146l39 -52zM812 1092h-409
l-41 51l63 52h410l39 -52zM647 1280l-126 205l29 136l126 -204l215 204l-29 -136z" />
    <glyph glyph-name="Scaron" unicode="&#x160;" 
d="M580 0h-409l-41 51l63 51h409l40 -51zM432 546h-145l-41 51l63 52h145l39 -52zM664 68l-27 34l32 154l-10 34l51 239l61 51l41 -51l-87 -410zM234 614l-41 52l87 409l61 51l28 -34l-33 -153l10 -34l-51 -239zM696 546h-145l-41 51l63 52h146l39 -52zM812 1092h-409
l-41 51l63 52h410l39 -52zM647 1280l-126 205l29 136l126 -204l215 204l-29 -136z" />
    <glyph glyph-name="scaron" 
d="M647 1280l-126 205l29 136l126 -204l215 204l-29 -136zM580 0h-409l-41 51l63 51h409l40 -51zM432 546h-145l-41 51l63 52h145l39 -52zM664 68l-27 34l32 154l-10 34l51 239l61 51l41 -51l-87 -410zM234 614l-41 52l87 409l61 51l28 -34l-33 -153l10 -34l-51 -239z
M696 546h-145l-41 51l63 52h146l39 -52zM812 1092h-409l-41 51l63 52h410l39 -52z" />
    <glyph glyph-name="scaron" unicode="&#x161;" 
d="M647 1280l-126 205l29 136l126 -204l215 204l-29 -136zM580 0h-409l-41 51l63 51h409l40 -51zM432 546h-145l-41 51l63 52h145l39 -52zM664 68l-27 34l32 154l-10 34l51 239l61 51l41 -51l-87 -410zM234 614l-41 52l87 409l61 51l28 -34l-33 -153l10 -34l-51 -239z
M696 546h-145l-41 51l63 52h146l39 -52zM812 1092h-409l-41 51l63 52h410l39 -52z" />
    <glyph glyph-name="brokenbar" unicode="&#xa6;" horiz-adv-x="205" 
d="M77 119l51 239l24 35l32 153l41 34l28 -34l-33 -153l10 -35l-51 -239h-102zM307 802l-32 -153l-41 -35l-27 35l32 153l-10 34l51 239h102l-51 -239z" />
    <glyph glyph-name="Yacute" unicode="&#xdd;" 
d="M350 119l51 239l24 35l32 153l41 34l28 -34l-33 -153l10 -35l-51 -239h-102zM432 546h-145l-41 51l63 52h145l39 -52zM234 614l-41 52l87 409l61 51l28 -34l-33 -153l10 -34l-51 -239zM696 546h-145l-41 51l63 52h146l39 -52zM780 614l-41 52l51 239l24 34l33 153l40 34
l41 -51l-87 -409zM561 1280l30 137l215 204l-29 -136z" />
    <glyph glyph-name="yacute" unicode="&#xfd;" 
d="M561 1280l30 137l215 204l-29 -136zM350 119l51 239l24 35l32 153l41 34l28 -34l-33 -153l10 -35l-51 -239h-102zM432 546h-145l-41 51l63 52h145l39 -52zM234 614l-41 52l87 409l61 51l28 -34l-33 -153l10 -34l-51 -239zM696 546h-145l-41 51l63 52h146l39 -52zM780 614
l-41 52l51 239l24 34l33 153l40 34l41 -51l-87 -409z" />
    <glyph glyph-name="Thorn" unicode="&#xde;" 
d="M31 -340l-41 52l58 273l61 49l41 -49l-58 -273zM580 0h-409l-41 51l63 51h409l40 -51zM191 256l-32 -154l-41 -34l-41 51l87 410l61 51l41 -51l-51 -239zM432 546h-145l-41 51l63 52h145l39 -52zM664 68l-27 34l32 154l-10 34l51 239l61 51l41 -51l-87 -410zM234 614
l-41 52l87 409l61 51l28 -34l-33 -153l10 -34l-51 -239zM696 546h-145l-41 51l63 52h146l39 -52z" />
    <glyph glyph-name="thorn" unicode="&#xfe;" 
d="M31 -340l-41 52l58 273l61 49l41 -49l-58 -273zM580 0h-409l-41 51l63 51h409l40 -51zM191 256l-32 -154l-41 -34l-41 51l87 410l61 51l41 -51l-51 -239zM432 546h-145l-41 51l63 52h145l39 -52zM664 68l-27 34l32 154l-10 34l51 239l61 51l41 -51l-87 -410zM234 614
l-41 52l87 409l61 51l28 -34l-33 -153l10 -34l-51 -239zM696 546h-145l-41 51l63 52h146l39 -52z" />
    <glyph glyph-name="minus" unicode="&#xad;" 
d="M432 546h-145l-41 51l63 52h145l39 -52zM696 546h-145l-41 51l63 52h146l39 -52z" />
    <glyph glyph-name="multiply" unicode="&#xd7;" 
d="M179 119l29 137l229 273l-29 -136zM510 393l29 136l113 -273l-29 -137zM353 939l29 136l113 -273l-29 -136zM568 666l29 136l229 273l-29 -136z" />
    <glyph glyph-name="euro" unicode="&#x20ac;" 
d="M580 0h-409l-41 51l63 51h409l40 -51zM191 256l-32 -154l-41 -34l-41 51l87 410l61 51l41 -51l-51 -239zM370 375h-102l22 103h103l39 -51zM234 614l-41 52l87 409l61 51l28 -34l-33 -153l10 -34l-51 -239zM544 717h-204l22 102h205l41 -51zM812 1092h-409l-41 51l63 52
h410l39 -52z" />
  </font>
</defs>
</svg>
